<?xml version="1.0" encoding="UTF-8"?>
<svg version="1.1" xmlns="http://www.w3.org/2000/svg" xmlns:xlink="http://www.w3.org/1999/xlink">
<defs>
<clipPath id="clip0"><path fill="#fff" transform="translate(0 .088)" d="M0 0h28v28.112H0z"/></clipPath>
<clipPath id="clip0"><path fill="#fff" transform="translate(0 .088)" d="M0 0h28v28.112H0z"/></clipPath>
</defs>
<symbol id="i-i-arrow-circle-right" viewBox="0 0 20 20" fill="none" xmlns="http://www.w3.org/2000/svg"><circle cx="10" cy="10" r="10" fill="#DDE0E9"/><path d="M10.435 13.24l3.288-3.286-3.288-3.288M13.724 9.954H5.833" stroke="#fff" stroke-width="1.5" stroke-linecap="round" stroke-linejoin="round"/></symbol>
<symbol id="i-i-badge" viewBox="0 0 19 19" fill="none" xmlns="http://www.w3.org/2000/svg"><path d="M16.266 2.812a2.282 2.282 0 00-1.52-.577h-4.505c-.629 0-1.257.262-1.729.734L1.86 9.622c-.42.472-.682 1.048-.734 1.624a2.02 2.02 0 00.576 1.624l4.506 4.506c.367.367.89.576 1.467.576.628 0 1.257-.262 1.729-.733l6.653-6.654c.472-.471.734-1.1.734-1.729l.052-4.505c0-.576-.21-1.1-.576-1.52zm-.472 6.024c0 .367-.157.734-.419.996l-6.653 6.653c-.262.262-.63.42-.996.42-.314 0-.576-.105-.733-.315l-4.506-4.505c-.21-.158-.314-.472-.314-.786 0-.367.157-.681.419-.943l6.653-6.601a1.29 1.29 0 01.996-.472h4.505c.315 0 .577.105.734.314.21.158.314.42.314.734v4.505z" fill="#9199B5" stroke="#9199B5" stroke-linecap="round" stroke-linejoin="round"/><path d="M14 7.5a2.5 2.5 0 11-5 0 2.5 2.5 0 015 0zm-3.342 0a.842.842 0 101.684 0 .842.842 0 00-1.684 0z" fill="#9199B5"/></symbol>
<symbol id="i-i-bookmark" viewBox="0 0 18 20" fill="none" xmlns="http://www.w3.org/2000/svg"><path d="M1 1h16v17.3l-7.029-3.904a2 2 0 00-1.942 0L1 18.3V1z" fill="var(--fill-color)" stroke="currentColor" stroke-width="2"/></symbol>
<symbol id="i-i-briefcase" viewBox="0 0 20 20" fill="none" xmlns="http://www.w3.org/2000/svg"><path d="M15.95 4.667H13.4v-.89c0-.47-.179-.923-.498-1.256A1.663 1.663 0 0011.7 2H8.3c-.45 0-.883.187-1.202.52A1.82 1.82 0 006.6 3.779v.889H4.05c-.676 0-1.325.28-1.803.78A2.73 2.73 0 001.5 7.334v8c0 .708.269 1.386.747 1.886S3.374 18 4.05 18h11.9c.677 0 1.325-.281 1.803-.781a2.73 2.73 0 00.747-1.886v-8a2.73 2.73 0 00-.747-1.885 2.495 2.495 0 00-1.803-.781zm-7.65-.89h3.4v.89H8.3v-.89zm8.5 11.556a.91.91 0 01-.249.629.832.832 0 01-.6.26H4.05a.832.832 0 01-.602-.26.91.91 0 01-.249-.629v-4.986l3.978 1.43c.09.014.182.014.272 0h5.1a.972.972 0 00.272-.044l3.978-1.386v4.986zm0-6.862L12.414 10H7.586L3.2 8.471V7.333a.91.91 0 01.25-.628.832.832 0 01.6-.26h11.9c.226 0 .442.093.601.26a.91.91 0 01.25.628v1.138z" fill="#9199B5"/></symbol>
<symbol id="i-i-close" viewBox="0 0 21 21" fill="none" xmlns="http://www.w3.org/2000/svg"><path d="M5.09 5.228l11.249 11.249M5.544 16.585l11.25-11.25" stroke="#9199B5" stroke-width="2" stroke-linecap="round" stroke-linejoin="round"/></symbol>
<symbol id="i-i-comment" viewBox="0 0 20 20" fill="none" xmlns="http://www.w3.org/2000/svg"><path d="M17 9.611a6.518 6.518 0 01-.7 2.956 6.612 6.612 0 01-5.911 3.655 6.517 6.517 0 01-2.956-.7L3 17l1.478-4.433a6.518 6.518 0 01-.7-2.956A6.611 6.611 0 017.433 3.7 6.518 6.518 0 0110.39 3h.389A6.596 6.596 0 0117 9.222v.39z" stroke="#9199B5" stroke-width="2" stroke-linecap="round" stroke-linejoin="round"/></symbol>
<symbol id="i-i-company" viewBox="0 0 20 20" fill="none" xmlns="http://www.w3.org/2000/svg"><path fill-rule="evenodd" clip-rule="evenodd" d="M9.009 1A2.004 2.004 0 007 2.995V19h9.991A2.004 2.004 0 0019 17.005V2.995C19 1.893 18.1 1 16.991 1H9.01zM17 2.995S16.998 17 16.991 17H9s.002-14 .009-14C9.009 3 17 3 17 2.995zM6 4H3.009C1.902 4 1 4.962 1 6.15v10.7C1 18.04 1.9 19 3.009 19H6v-2.145c-1.616-.001-3-.003-3-.004 0 0 .005-10.708.009-10.708L6 6.144V4zm6 1h-2v2h2V5zM4 8h2v2H4V8zm2 3H4v2h2v-2zm4-3h2v2h-2V8zm2 3h-2v2h2v-2zm0 3h2v3h-2v-3zm4-9h-2v2h2V5zm-2 3h2v2h-2V8zm2 3h-2v2h2v-2z" fill="#9199B5"/></symbol>
<symbol id="i-i-database" viewBox="0 0 20 20" fill="none" xmlns="http://www.w3.org/2000/svg"><path d="M10 7.2c3.59 0 6.5-.94 6.5-2.1C16.5 3.94 13.59 3 10 3s-6.5.94-6.5 2.1c0 1.16 2.91 2.1 6.5 2.1zM16.5 10c0 1.162-2.889 2.1-6.5 2.1s-6.5-.938-6.5-2.1" stroke="#9199B5" stroke-width="2" stroke-linecap="round" stroke-linejoin="round"/><path d="M3.5 5.1v9.8c0 1.162 2.889 2.1 6.5 2.1s6.5-.938 6.5-2.1V5.1" stroke="#9199B5" stroke-width="2" stroke-linecap="round" stroke-linejoin="round"/></symbol>
<symbol id="i-i-event" viewBox="0 0 20 20" fill="none" xmlns="http://www.w3.org/2000/svg"><path d="M15.444 4H4.556C3.696 4 3 4.672 3 5.5V16c0 .828.696 1.5 1.556 1.5h10.888c.86 0 1.556-.672 1.556-1.5V5.5c0-.828-.696-1.5-1.556-1.5zM13.111 2.5v3M6.889 2.5v3M3 8.5h14" stroke="currentColor" stroke-width="2" stroke-linecap="round" stroke-linejoin="round"/></symbol>
<symbol id="i-i-expert" viewBox="0 0 20 20" fill="none" xmlns="http://www.w3.org/2000/svg"><path d="M14.063 17v-1.667c0-.884-.337-1.732-.937-2.357A3.136 3.136 0 0010.863 12h-5.6c-.849 0-1.663.351-2.263.976a3.405 3.405 0 00-.937 2.357V17M8.063 9a3 3 0 100-6 3 3 0 000 6zM14.063 8.556l1.545 1.555L18.7 7" stroke="#9199B5" stroke-width="2" stroke-linecap="round" stroke-linejoin="round"/></symbol>
<symbol id="i-i-file-text" viewBox="0 0 20 21" fill="none" xmlns="http://www.w3.org/2000/svg"><path d="M11.666 2H5a1.667 1.667 0 00-1.667 1.667V17A1.667 1.667 0 005 18.666h10A1.667 1.667 0 0016.666 17V7l-5-5z" stroke="#9199B5" stroke-width="2" stroke-linecap="round" stroke-linejoin="round"/><path d="M11.667 2v5h5M13.334 11.167H6.667M13.334 14.5H6.667M8.334 7.833H6.667" stroke="#9199B5" stroke-width="2" stroke-linecap="round" stroke-linejoin="round"/></symbol>
<symbol id="i-i-file" viewBox="0 0 20 21" fill="none" xmlns="http://www.w3.org/2000/svg"><path d="M10.833 2.167H5a1.667 1.667 0 00-1.667 1.666v13.334A1.666 1.666 0 005 18.833h10a1.667 1.667 0 001.666-1.666V8l-5.833-5.833z" stroke="#9199B5" stroke-width="2" stroke-linecap="round" stroke-linejoin="round"/><path d="M10.833 2.167V8h5.833" stroke="#9199B5" stroke-width="2" stroke-linecap="round" stroke-linejoin="round"/></symbol>
<symbol id="i-i-flag" viewBox="0 0 20 21" fill="none" xmlns="http://www.w3.org/2000/svg"><path d="M3.139 12.852s.857-.784 3.43-.784c2.573 0 4.289 1.569 6.862 1.569 2.573 0 3.43-.785 3.43-.785v-9.41s-.857.785-3.43.785c-2.573 0-4.289-1.569-6.862-1.569-2.573 0-3.43.785-3.43.785v9.41zM3.139 18.341v-5.489" stroke="#9199B5" stroke-width="2" stroke-linecap="round" stroke-linejoin="round"/></symbol>
<symbol id="i-i-home" viewBox="0 0 20 20" fill="none" xmlns="http://www.w3.org/2000/svg"><path d="M3.22 7.81L10 2.697l6.78 5.111v8.032c0 .388-.158.76-.44 1.033a1.531 1.531 0 01-1.066.428H4.726c-.4 0-.782-.154-1.065-.428a1.438 1.438 0 01-.441-1.032V7.809z" stroke="#9199B5" stroke-width="2" stroke-linecap="round" stroke-linejoin="round"/><path d="M7.74 17.302V10h4.52v7.302" stroke="#9199B5" stroke-width="2" stroke-linecap="round" stroke-linejoin="round"/></symbol>
<symbol id="i-i-login" viewBox="0 0 20 21" fill="none" xmlns="http://www.w3.org/2000/svg"><path d="M8.348 13.919l1.22 1.22 4.326-4.326-4.326-4.327-1.22 1.22 2.232 2.241H2.213v1.73h8.367L8.348 13.92z" fill="#23346b"/><path d="M16.056 3.026H3.943c-.96 0-1.73.778-1.73 1.73v3.46h1.73v-3.46h12.113v12.113H3.943v-3.46h-1.73v3.46c0 .952.77 1.73 1.73 1.73h12.113c.952 0 1.73-.778 1.73-1.73V4.756c0-.952-.778-1.73-1.73-1.73z" fill="#23346b"/></symbol>
<symbol id="i-i-magic" viewBox="0 0 20 20" fill="none" xmlns="http://www.w3.org/2000/svg"><path d="M11.79 11.238l3.213-3.214a.909.909 0 000-1.286L13.075 4.81a.909.909 0 00-1.286 0L8.587 8.015l-.01.009-8.165 8.166a.909.909 0 000 1.285l1.927 1.928a.909.909 0 001.286 0l8.164-8.163v-.001zm.642-4.5l.643.643-1.927 1.928-.643-.643 1.927-1.927zm-9.45 10.736l-.642-.642 6.879-6.88.642.643-6.879 6.88zM18.904 6.362h-1.817a.909.909 0 000 1.818h1.817a.909.909 0 000-1.818zM12.543 3.636a.909.909 0 00.909-.91V.91a.909.909 0 10-1.818 0v1.818c0 .502.407.909.909.909zM12.543 11.816a.909.909 0 00-.91.909v.909a.909.909 0 101.819 0v-.91a.909.909 0 00-.91-.908zM8.686 4.7a.909.909 0 001.286-1.285L8.686 2.13a.909.909 0 00-1.285 1.285l1.285 1.286zM16.398 9.842a.909.909 0 00-1.285 1.285l1.285 1.285a.909.909 0 001.285-1.285l-1.285-1.285zM16.398 4.7l1.285-1.285a.909.909 0 00-1.285-1.285l-1.285 1.285a.909.909 0 101.285 1.286z" fill="#9199B5"/></symbol>
<symbol id="i-i-map-pin" viewBox="0 0 20 20" fill="none" xmlns="http://www.w3.org/2000/svg"><path d="M16.841 8.258c0 2.647-1.726 5.235-3.646 7.262A25.507 25.507 0 0110 18.354a25.5 25.5 0 01-3.195-2.834c-1.92-2.027-3.646-4.615-3.646-7.262a6.84 6.84 0 1113.682 0z" stroke="#9199B5" stroke-width="2" stroke-linecap="round" stroke-linejoin="round"/><path d="M10 10.871a2.614 2.614 0 100-5.227 2.614 2.614 0 000 5.227z" stroke="#9199B5" stroke-width="2" stroke-linecap="round" stroke-linejoin="round"/></symbol>
<symbol id="i-i-more-vertical" viewBox="0 0 3 12" fill="none" xmlns="http://www.w3.org/2000/svg"><path fill-rule="evenodd" clip-rule="evenodd" d="M1.333 12a1.333 1.333 0 100-2.666 1.333 1.333 0 000 2.667zM1.333 7.333a1.333 1.333 0 100-2.667 1.333 1.333 0 000 2.667zM1.333 2.667a1.333 1.333 0 100-2.667 1.333 1.333 0 000 2.667z" fill="#DADADA"/></symbol>
<symbol id="i-i-news" viewBox="0 0 20 20" fill="none" xmlns="http://www.w3.org/2000/svg"><path fill-rule="evenodd" clip-rule="evenodd" d="M2.5 5.313a1 1 0 00-1 1V15.5a2 2 0 002 2h13a2 2 0 002-2v-11a2 2 0 00-2-2H6.333a2 2 0 00-2 2v.813H2.5zm.888 1.875h.945v7.965a.472.472 0 01-.945 0V7.187zm13.223-2.813H6.222v11.25h9.389a1 1 0 001-1V4.375zm-8.5 1.875h6.612v1.875H8.112V6.25zM14.724 10H8.112v1.875h6.61V10z" fill="#9199B5"/></symbol>
<symbol id="i-i-offline" viewBox="0 0 28 29" fill="none" xmlns="http://www.w3.org/2000/svg"><g clip-path="url(#clip0)"><path d="M14 11.468c-3.32 0-6.358 1.695-8.124 4.534a1.473 1.473 0 00.465 2.024 1.46 1.46 0 002.016-.468c1.228-1.974 3.338-3.153 5.643-3.153 2.304 0 4.414 1.179 5.642 3.153a1.46 1.46 0 002.015.468c.686-.43.894-1.335.466-2.024-1.766-2.839-4.802-4.534-8.123-4.534z" fill="#F69370"/><path d="M27.778 12.466c-2.99-4.81-8.141-7.68-13.778-7.68-5.637 0-10.787 2.87-13.778 7.68a1.472 1.472 0 00.466 2.023 1.46 1.46 0 002.016-.468C5.156 10.078 9.38 7.723 14 7.723c4.62 0 8.844 2.354 11.297 6.298a1.46 1.46 0 002.015.468c.685-.43.894-1.335.466-2.023zM14 23.503a2.412 2.412 0 002.407-2.416A2.412 2.412 0 0014 18.67a2.412 2.412 0 00-2.407 2.417A2.412 2.412 0 0014 23.503z" fill="#F69370"/><path transform="matrix(.70522 -.709 .70616 .70805 6 24.706)" stroke="#F69370" stroke-width="3" stroke-linecap="round" d="M1.5-1.5h26.058"/></g></symbol>
<symbol id="i-i-online" viewBox="0 0 28 29" fill="none" xmlns="http://www.w3.org/2000/svg"><g clip-path="url(#clip0)" fill="#87C8A7"><path d="M14 11.468c-3.32 0-6.358 1.695-8.124 4.534a1.473 1.473 0 00.465 2.024 1.46 1.46 0 002.016-.468c1.228-1.974 3.338-3.153 5.643-3.153 2.304 0 4.414 1.179 5.642 3.153a1.46 1.46 0 002.015.468c.686-.43.894-1.335.466-2.024-1.766-2.839-4.802-4.534-8.123-4.534z"/><path d="M27.778 12.68C24.788 7.87 19.637 5 14 5 8.363 5 3.213 7.87.222 12.68a1.472 1.472 0 00.466 2.024 1.46 1.46 0 002.016-.468C5.156 10.292 9.38 7.937 14 7.937c4.62 0 8.844 2.355 11.297 6.299a1.46 1.46 0 002.015.467c.685-.43.894-1.335.466-2.023zM14 23.503a2.412 2.412 0 002.407-2.416A2.412 2.412 0 0014 18.67a2.412 2.412 0 00-2.407 2.417A2.412 2.412 0 0014 23.503z"/></g></symbol>
<symbol id="i-i-pie-chart" viewBox="0 0 20 20" fill="none" xmlns="http://www.w3.org/2000/svg"><path d="M16.733 12.92a7.502 7.502 0 11-9.91-9.797M17.326 10.002A7.502 7.502 0 009.824 2.5v7.502h7.502z" stroke="#9199B5" stroke-width="2" stroke-linecap="round" stroke-linejoin="round"/></symbol>
<symbol id="i-i-quote-open" viewBox="0 0 22 18" fill="none" xmlns="http://www.w3.org/2000/svg"><path d="M4.5 8.177c0-2.7 0-3.15 2.25-3.15V0C1.502 0 0 3.529 0 9.752V18h9.752V9.752H4.5V8.177zM16.704 9.752V8.177c0-2.7 0-3.15 2.25-3.15V0c-5.25 0-6.75 3.529-6.75 9.752V18h9.747V9.752h-5.247z" fill="#9199B5"/></symbol>
<symbol id="i-i-refresh-cw" viewBox="0 0 16 14" fill="none" xmlns="http://www.w3.org/2000/svg"><path d="M14.926 1.652v3.92h-3.92" stroke="#9199B5" stroke-width="1.5" stroke-linecap="round" stroke-linejoin="round"/><path d="M14.926 5.572l-3.032-2.848a5.88 5.88 0 00-9.701 2.195M1 12.22V8.3h3.92" stroke="#9199B5" stroke-width="1.5" stroke-linecap="round" stroke-linejoin="round"/><path d="M1 8.3l3.031 2.85a5.88 5.88 0 009.702-2.196" stroke="#9199B5" stroke-width="1.5" stroke-linecap="round" stroke-linejoin="round"/></symbol>
<symbol id="i-i-search" viewBox="0 0 16 16" fill="none" xmlns="http://www.w3.org/2000/svg"><path d="M15 15l-3.383-3.384m1.827-4.394A6.222 6.222 0 111 7.222a6.222 6.222 0 0112.444 0z" stroke="#9199B5" stroke-width="2" stroke-linecap="round" stroke-linejoin="round"/></symbol>
<symbol id="i-i-settings" viewBox="0 0 20 20" fill="none" xmlns="http://www.w3.org/2000/svg"><path d="M10 12.182a2.182 2.182 0 100-4.364 2.182 2.182 0 000 4.364z" stroke="#9199B5" stroke-width="2" stroke-linecap="round" stroke-linejoin="round"/><path d="M15.382 12.182a1.2 1.2 0 00.24 1.323l.043.044a1.455 1.455 0 11-2.058 2.058l-.043-.043a1.2 1.2 0 00-1.324-.24 1.2 1.2 0 00-.727 1.098v.123a1.455 1.455 0 11-2.91 0v-.065a1.2 1.2 0 00-.785-1.098 1.2 1.2 0 00-1.323.24l-.044.043a1.455 1.455 0 11-2.058-2.058l.043-.043a1.2 1.2 0 00.24-1.324 1.2 1.2 0 00-1.098-.727h-.123a1.454 1.454 0 110-2.91h.065a1.2 1.2 0 001.098-.785 1.2 1.2 0 00-.24-1.323l-.043-.044a1.455 1.455 0 112.058-2.058l.043.043a1.2 1.2 0 001.324.24h.058a1.2 1.2 0 00.727-1.098v-.123a1.455 1.455 0 012.91 0v.065a1.2 1.2 0 00.727 1.098 1.2 1.2 0 001.323-.24l.044-.043a1.455 1.455 0 112.058 2.058l-.043.043a1.2 1.2 0 00-.24 1.324v.058a1.2 1.2 0 001.098.727h.123a1.455 1.455 0 010 2.91h-.065a1.2 1.2 0 00-1.098.727v0z" stroke="#9199B5" stroke-width="2" stroke-linecap="round" stroke-linejoin="round"/></symbol>
<symbol id="i-i-star" viewBox="0 0 20 20" fill="none" xmlns="http://www.w3.org/2000/svg"><path d="M10 2.5l2.472 4.937L18 8.233l-4 3.841.944 5.426L10 14.937 5.056 17.5 6 12.074l-4-3.84 5.528-.797L10 2.5z" stroke="#9199B5" stroke-width="2" stroke-linecap="round" stroke-linejoin="round"/></symbol>
<symbol id="i-i-user" viewBox="0 0 20 21" fill="none" xmlns="http://www.w3.org/2000/svg"><path d="M12.785 11.032a4.497 4.497 0 001.543-2.268 4.474 4.474 0 00-.066-2.738 4.5 4.5 0 00-1.65-2.192 4.54 4.54 0 00-5.246 0 4.5 4.5 0 00-1.65 2.192 4.474 4.474 0 00-.066 2.738c.264.897.804 1.69 1.543 2.268a7.533 7.533 0 00-3.197 2.421 7.473 7.473 0 00-1.491 3.71.75.75 0 00.162.555.76.76 0 001.345-.39 5.986 5.986 0 011.973-3.8A6.049 6.049 0 0110.004 12c1.482 0 2.913.543 4.019 1.526a5.986 5.986 0 011.973 3.801.748.748 0 00.754.668h.082a.755.755 0 00.664-.825 7.473 7.473 0 00-1.5-3.72 7.534 7.534 0 00-3.21-2.419zM9.99 10.5c-.596 0-1.18-.176-1.675-.505a3.002 3.002 0 01-1.11-1.346 2.983 2.983 0 01.653-3.268 3.02 3.02 0 013.285-.65 3.01 3.01 0 011.354 1.105 2.986 2.986 0 01-.375 3.786 3.023 3.023 0 01-2.132.878z" fill="#9199B5" stroke="#9199B5" stroke-width=".5"/></symbol>
<symbol id="i-i-users" viewBox="0 0 20 20" fill="none" xmlns="http://www.w3.org/2000/svg"><path d="M13.977 17v-1.556c0-.825-.335-1.616-.932-2.2a3.219 3.219 0 00-2.25-.91H4.433c-.844 0-1.653.327-2.25.91a3.076 3.076 0 00-.932 2.2V17M7.614 9.222c1.757 0 3.182-1.393 3.182-3.11C10.796 4.391 9.371 3 7.614 3S4.432 4.393 4.432 6.111c0 1.718 1.425 3.111 3.182 3.111zM18.75 17v-1.556c0-.689-.235-1.359-.667-1.903a3.188 3.188 0 00-1.72-1.107M13.182 3.101c.685.172 1.291.56 1.725 1.106.433.546.668 1.217.668 1.908 0 .69-.235 1.362-.668 1.908a3.188 3.188 0 01-1.725 1.106" stroke="#9199B5" stroke-width="2" stroke-linecap="round" stroke-linejoin="round"/></symbol>
<symbol id="i-i-windows" viewBox="0 0 19 22" fill="none" xmlns="http://www.w3.org/2000/svg"><path d="M16.375 10H2.625c-.345 0-.625.249-.625.556v8.888c0 .307.28.556.625.556h13.75c.345 0 .625-.249.625-.555v-8.89c0-.306-.28-.555-.625-.555zm-.625 8.889H3.25V11.11h12.5v7.778h0z" fill="#9199B5" stroke="#9199B5" stroke-linecap="round" stroke-linejoin="round"/><path d="M3.722 7.417h11.556A.715.715 0 0016 6.708.715.715 0 0015.278 6H3.722A.715.715 0 003 6.708c0 .392.323.709.722.709zM4.611 3.417h9.778c.337 0 .611-.317.611-.709 0-.39-.274-.708-.611-.708H4.61C4.274 2 4 2.317 4 2.708c0 .392.274.709.611.709z" fill="#9199B5" stroke="#9199B5"/></symbol>
<symbol id="i-r-heavy-industry" viewBox="0 0 18 18" fill="none" xmlns="http://www.w3.org/2000/svg"><path d="M16.22 6.993v-.146a6.604 6.604 0 00-1.387-4.058A7.163 7.163 0 0011.184.31h-.053A7.847 7.847 0 008.796.001C6.916.1 5.145.878 3.846 2.177c-1.3 1.3-2.03 3.022-2.04 4.816a2.694 2.694 0 00-1.309.94A2.49 2.49 0 000 9.421c0 .533.174 1.053.497 1.488.324.434.78.763 1.309.94.185 1.694 1.026 3.262 2.358 4.399A7.418 7.418 0 009.014 18h.207a7.514 7.514 0 004.64-1.865 6.864 6.864 0 002.279-4.278 2.7 2.7 0 001.333-.919c.334-.43.518-.95.527-1.485a2.488 2.488 0 00-.477-1.5 2.69 2.69 0 00-1.302-.96zm-7.045 9.291a5.58 5.58 0 01-3.586-1.167 5.1 5.1 0 01-1.9-3.122h10.604a5.168 5.168 0 01-1.774 2.993 5.637 5.637 0 01-3.344 1.296zm6.145-6.005H2.707a.924.924 0 01-.637-.251.838.838 0 01-.264-.607c0-.228.095-.446.264-.607a.924.924 0 01.637-.25h1.802c.239 0 .468-.091.637-.252a.838.838 0 00.264-.607.838.838 0 00-.264-.606.924.924 0 00-.637-.252h-.901c.04-.89.307-1.757.778-2.527a5.623 5.623 0 011.925-1.89v2.702c0 .227.094.445.263.606.17.161.399.251.637.251.24 0 .469-.09.637-.25a.838.838 0 00.264-.607V1.777c.245-.039.492-.064.74-.077h.161c.302.004.603.03.901.077v3.355c0 .227.095.445.264.606.17.161.398.251.637.251.24 0 .468-.09.637-.25a.837.837 0 00.264-.607V2.403c.382.211.739.462 1.063.747.52.48.932 1.055 1.214 1.69.282.635.426 1.318.426 2.007h-.901a.924.924 0 00-.637.252.837.837 0 00-.264.606c0 .228.095.446.264.607.169.16.398.251.637.251h1.802c.239 0 .468.09.637.251.169.161.264.38.264.607a.837.837 0 01-.264.607.924.924 0 01-.637.25z" fill="#9199B5"/></symbol>
<symbol id="i-r-industrial-support" viewBox="0 0 22 22" fill="none" xmlns="http://www.w3.org/2000/svg"><path d="M20.375 10.866c-.669-.55-1.726-.598-2.42.146l-1.722 1.85a1.76 1.76 0 00-1.678-1.237H11.48c-.233 0-.311-.09-.716-.402a4.11 4.11 0 00-5.404.013l-1.13.995a1.75 1.75 0 00-1.611-.02l-1.296.647a.586.586 0 00-.262.786l3.515 7.031c.145.29.497.407.787.263l1.295-.648c.64-.32.995-.971.971-1.634h6.925c1.283 0 2.51-.614 3.28-1.64l2.813-3.752c.546-.727.46-1.793-.273-2.398zm-14.24 8.375l-.771.386-2.992-5.983.772-.386a.586.586 0 01.786.263l2.467 4.935a.586.586 0 01-.262.785zm13.576-6.68l-2.813 3.75a2.943 2.943 0 01-2.343 1.173H7.22l-2.195-4.392 1.109-.976a2.937 2.937 0 013.87 0c.65.572 1.055.68 1.476.68h3.074a.587.587 0 010 1.172h-2.993a.586.586 0 000 1.172h3.385c.486 0 .955-.204 1.286-.56l2.58-2.769a.586.586 0 01.898.75zM13.32 4.998c.402-.42.649-.99.649-1.615 0-1.29-1.042-2.383-2.344-2.383-1.292 0-2.383 1.091-2.383 2.383a2.3 2.3 0 00.67 1.62c-1.071.6-1.841 1.754-1.841 3.106v.586c0 .323.262.586.585.586h5.899a.586.586 0 00.586-.586V8.11c0-1.326-.73-2.497-1.82-3.11zm-1.695-2.826c.635 0 1.172.555 1.172 1.21 0 .647-.526 1.173-1.172 1.173-.656 0-1.21-.537-1.21-1.172 0-.645.565-1.211 1.21-1.211zM9.242 8.109c0-1.292 1.091-2.383 2.383-2.383s2.344 1.07 2.344 2.383H9.242z" fill="#9199B5" stroke="#9199B5" stroke-width=".5"/></symbol>
<symbol id="i-r-light-industry" viewBox="0 0 20 20" fill="none" xmlns="http://www.w3.org/2000/svg"><path d="M10 12.454a2.455 2.455 0 100-4.909 2.455 2.455 0 000 4.91z" stroke="#9199B5" stroke-width="2" stroke-linecap="round" stroke-linejoin="round"/><path d="M16.055 12.454a1.35 1.35 0 00.27 1.49l.049.049a1.636 1.636 0 01-.531 2.67 1.637 1.637 0 01-1.785-.355l-.049-.049a1.35 1.35 0 00-1.489-.27 1.35 1.35 0 00-.818 1.235v.14a1.636 1.636 0 11-3.273 0v-.074a1.35 1.35 0 00-.884-1.235 1.35 1.35 0 00-1.489.27l-.049.049a1.635 1.635 0 01-2.315 0 1.635 1.635 0 010-2.316l.049-.049a1.35 1.35 0 00.27-1.489 1.35 1.35 0 00-1.236-.818h-.139a1.636 1.636 0 110-3.273h.074a1.35 1.35 0 001.235-.884 1.35 1.35 0 00-.27-1.489l-.049-.049a1.636 1.636 0 112.316-2.315l.049.049a1.35 1.35 0 001.489.27h.065a1.35 1.35 0 00.819-1.236v-.139a1.636 1.636 0 113.272 0v.074a1.35 1.35 0 00.819 1.235 1.35 1.35 0 001.489-.27l.049-.049a1.637 1.637 0 112.315 2.316l-.049.049a1.35 1.35 0 00-.27 1.489v.065a1.35 1.35 0 001.235.819h.14a1.636 1.636 0 010 3.272h-.074a1.35 1.35 0 00-1.235.819v0z" stroke="#9199B5" stroke-width="2" stroke-linecap="round" stroke-linejoin="round"/></symbol>
</svg>