<svg width="50" height="50" viewBox="0 0 50 50" fill="none" xmlns="http://www.w3.org/2000/svg">
<path opacity="0.08" fill-rule="evenodd" clip-rule="evenodd" d="M23.2859 4.34044C28.1259 5.66911 30.0433 10.7827 34.1861 13.4104C38.4526 16.1166 45.4846 15.5435 47.6882 19.8185C49.8784 24.0674 46.5276 28.9413 44.3941 33.2138C42.4778 37.0514 39.888 40.535 36.1146 42.996C32.3538 45.4486 27.913 47.2079 23.2859 46.9802C18.7921 46.7591 15.2098 43.9959 11.4313 41.7814C7.39994 39.4188 1.84117 37.8802 0.59237 33.6804C-0.655132 29.485 4.61545 26.0336 5.47782 21.7595C6.56548 16.3687 2.11998 9.7568 6.2305 5.73608C10.2064 1.84701 17.6859 2.80315 23.2859 4.34044Z" fill="#23346B"/>
<path d="M37.0915 43.141H12.9603C11.5886 43.141 10.4766 42.0289 10.4766 40.6573V10.7994C10.4766 9.4275 11.5886 8.31543 12.9603 8.31543H37.0915C38.4634 8.31543 39.5755 9.4275 39.5755 10.7994V40.6573C39.5755 42.0289 38.4634 43.141 37.0915 43.141Z" fill="white"/>
<path d="M36.5198 11.3711V35.42L31.8529 40.0866H13.5312V11.3711H36.5198Z" fill="#EAEBF0"/>
<path d="M31.8525 40.0866V35.4199H36.5195L31.8525 40.0866Z" fill="white"/>
<path d="M39.5752 17.7097C39.8916 17.7097 40.1479 17.4533 40.1479 17.137V10.7995C40.1479 9.11384 38.7769 7.74281 37.0912 7.74281H32.9305V7.58566C32.9305 6.23846 31.8346 5.14258 30.4877 5.14258H19.5638C18.2166 5.14258 17.1207 6.23846 17.1207 7.58566V7.74281H12.96C11.2746 7.74281 9.90332 9.11384 9.90332 10.7995V40.6574C9.90332 42.3427 11.2746 43.714 12.96 43.714H37.0912C38.7769 43.714 40.1482 42.3427 40.1482 40.6574V19.0466C40.1482 18.7302 39.8916 18.4736 39.5752 18.4736C39.2589 18.4736 39.0023 18.7302 39.0023 19.0466V40.6574C39.0023 41.7112 38.1451 42.5684 37.0912 42.5684H12.96C11.9065 42.5684 11.0489 41.7112 11.0489 40.6574V10.7995C11.0489 9.74565 11.9065 8.88843 12.96 8.88843H17.1207V10.7977H13.5315C13.2151 10.7977 12.9585 11.054 12.9585 11.3704V30.235C12.9585 30.5513 13.2151 30.8079 13.5315 30.8079C13.8478 30.8079 14.1041 30.5513 14.1041 30.235V11.9433H17.1207V11.9445C17.1207 13.2914 18.2169 14.3873 19.5638 14.3873H30.4877C31.8346 14.3873 32.9305 13.2914 32.9305 11.9445V11.9433H35.9471V34.8463H31.8531C31.5368 34.8463 31.2802 35.1029 31.2802 35.4192V39.5132H14.1041V32.1445C14.1041 31.8282 13.8478 31.5719 13.5315 31.5719C13.2151 31.5719 12.9585 31.8282 12.9585 32.1445V40.0859C12.9585 40.4022 13.2151 40.6588 13.5315 40.6588H31.8531C32.0053 40.6588 32.1509 40.5985 32.2583 40.4911L36.925 35.8242C37.0324 35.7167 37.0927 35.5711 37.0927 35.4192V11.3704C37.0927 11.054 36.8364 10.7977 36.5201 10.7977H32.9308V8.88843H37.0912C38.1451 8.88843 39.0026 9.74565 39.0026 10.7995V17.137C39.0023 17.4533 39.2589 17.7097 39.5752 17.7097ZM35.137 35.9919L32.4261 38.7031V35.9919H35.137ZM18.2667 7.58566C18.2667 6.87028 18.8484 6.2882 19.5638 6.2882H30.4877C31.2031 6.2882 31.7848 6.87028 31.7848 7.58566V7.74281H18.2667V7.58566ZM31.7848 11.9445C31.7848 12.6599 31.2031 13.2417 30.4877 13.2417H19.5638C18.8484 13.2417 18.2667 12.6599 18.2667 11.9445V11.9433H31.7848V11.9445ZM31.7848 10.7977H18.2667V8.88843H31.7848V10.7977Z" fill="#23346B"/>
<path d="M18.4497 22.0341C18.4562 22.0341 18.4623 22.0341 18.4688 22.0338C18.6889 22.0268 18.8858 21.8935 18.9744 21.6916L21.0364 16.9946C21.1638 16.7048 21.032 16.367 20.7421 16.2398C20.4525 16.1127 20.1147 16.2445 19.9876 16.5341L18.4061 20.1358L17.4689 18.333C17.3229 18.0523 16.9768 17.9431 16.6964 18.0891C16.4156 18.235 16.3065 18.5808 16.4524 18.8615L17.9418 21.7257C18.0403 21.9158 18.2366 22.0341 18.4497 22.0341Z" fill="#23346B"/>
<path d="M23.3767 18.5411H33.6872C34.0036 18.5411 34.2602 18.2845 34.2602 17.9682C34.2602 17.6518 34.0036 17.3955 33.6872 17.3955H23.3767C23.06 17.3955 22.8037 17.6518 22.8037 17.9682C22.8037 18.2845 23.06 18.5411 23.3767 18.5411Z" fill="#23346B"/>
<path d="M23.3767 20.8321H29.7919C30.1085 20.8321 30.3649 20.5755 30.3649 20.2592C30.3649 19.9428 30.1085 19.6865 29.7919 19.6865H23.3767C23.06 19.6865 22.8037 19.9428 22.8037 20.2592C22.8037 20.5755 23.06 20.8321 23.3767 20.8321Z" fill="#23346B"/>
<path d="M16.4524 25.4778L17.9418 28.342C18.0403 28.5318 18.2366 28.6504 18.4497 28.6504C18.4562 28.6504 18.4623 28.6504 18.4688 28.6501C18.6889 28.6427 18.8858 28.5097 18.9744 28.3079L21.0364 23.6109C21.1638 23.321 21.032 22.9832 20.7421 22.8561C20.4525 22.729 20.1147 22.8605 19.9876 23.1501L18.4061 26.752L17.4689 24.9493C17.3229 24.6685 16.9768 24.5594 16.6964 24.7053C16.4156 24.8513 16.3065 25.1971 16.4524 25.4778Z" fill="#23346B"/>
<path d="M23.3767 25.1564H33.6872C34.0036 25.1564 34.2602 24.8998 34.2602 24.5834C34.2602 24.2671 34.0036 24.0107 33.6872 24.0107H23.3767C23.06 24.0107 22.8037 24.2671 22.8037 24.5834C22.8037 24.8998 23.06 25.1564 23.3767 25.1564Z" fill="#23346B"/>
<path d="M23.3767 27.4484H29.7919C30.1085 27.4484 30.3649 27.192 30.3649 26.8757C30.3649 26.5593 30.1085 26.3027 29.7919 26.3027H23.3767C23.06 26.3027 22.8037 26.5593 22.8037 26.8757C22.8037 27.192 23.06 27.4484 23.3767 27.4484Z" fill="#23346B"/>
<path d="M23.3767 31.7726H33.6872C34.0036 31.7726 34.2602 31.5163 34.2602 31.1999C34.2602 30.8836 34.0036 30.627 33.6872 30.627H23.3767C23.06 30.627 22.8037 30.8836 22.8037 31.1999C22.8037 31.5163 23.06 31.7726 23.3767 31.7726Z" fill="#23346B"/>
<path d="M23.3767 34.0636H29.7919C30.1085 34.0636 30.3649 33.8073 30.3649 33.4909C30.3649 33.1746 30.1085 32.918 29.7919 32.918H23.3767C23.06 32.918 22.8037 33.1746 22.8037 33.4909C22.8037 33.8073 23.06 34.0636 23.3767 34.0636Z" fill="#23346B"/>
</svg>
