<svg width="50" height="50" viewBox="0 0 50 50" fill="none" xmlns="http://www.w3.org/2000/svg">
<g clip-path="url(#clip0)">
<path opacity="0.08" fill-rule="evenodd" clip-rule="evenodd" d="M45.3912 41.7161C49.5446 38.1808 49.4079 32.1009 50.2273 26.9569C50.9964 22.1285 51.3393 17.3892 49.9712 12.9641C48.4479 8.03677 47.0371 1.81089 42.0384 0.469149C36.9899 -0.885973 32.0887 5.03241 26.7574 6.73307C22.21 8.18368 16.8675 6.31954 13.2545 9.6511C9.6259 12.9971 10.5477 18.4723 9.07569 23.0375C7.36136 28.3543 1.46038 34.0934 3.92986 38.5706C6.44483 43.1302 14.0542 40.5241 19.2987 41.5718C23.0911 42.3294 26.4201 43.8318 30.3766 43.8536C35.4636 43.8818 41.2494 45.2416 45.3912 41.7161Z" fill="#23346B"/>
<path d="M13.7661 21.3048C12.8049 21.3048 12.0234 20.5234 12.0234 19.5622V16.3911C12.0234 15.4299 12.8049 14.6484 13.7661 14.6484C14.035 14.6484 14.3046 14.7123 14.5455 14.8322L17.7166 16.4177C18.3104 16.7146 18.6798 17.3117 18.6798 17.9766C18.6798 18.6416 18.3104 19.2387 17.716 19.5356L14.5455 21.1211C14.3046 21.2409 14.035 21.3048 13.7661 21.3048Z" fill="white"/>
<path d="M38.9355 6.01027C37.5563 4.71095 35.763 3.99805 33.86 3.99805C32.518 3.99805 31.2001 4.36282 30.0492 5.05375C28.7845 5.81258 27.999 7.19977 27.999 8.67482V8.81128C27.999 9.67528 28.252 10.512 28.7299 11.2309L28.8224 11.37C29.0454 10.9466 29.4841 10.6544 29.9959 10.6544H31.3272V10.6498H31.4417C32.6472 10.6498 33.8034 10.1712 34.6554 9.31849C35.5081 10.1712 36.6636 10.6498 37.8691 10.6498H37.9836V10.6544H39.3149C39.8267 10.6544 40.2654 10.9466 40.4884 11.37L40.5803 11.2315C41.0588 10.5126 41.3118 9.67528 41.3118 8.81128V8.65751C41.3118 7.28563 40.2694 6.15338 38.9355 6.01027Z" fill="white"/>
<path d="M8.0293 25.2988H22.6733V28.627H8.0293V25.2988Z" fill="white"/>
<path d="M12.0234 33.2861H13.3547V34.6174H12.0234V33.2861Z" fill="#23346B"/>
<path d="M27.1403 19.1446L32.347 17.7246L34.7138 20.5647L36.6071 17.7246L38.5005 18.198L41.8139 19.1446L43.2339 21.5114V31.4515H43.7073H46.074V33.8183L45.1273 35.7116L43.7073 36.6583H8.6799L6.78653 36.185L5.83984 34.2916L6.31319 30.9782H26.1936V21.5114L27.1403 19.1446Z" fill="white"/>
<path d="M14.6855 33.2861H16.0168V34.6174H14.6855V33.2861Z" fill="#23346B"/>
<path d="M9.36035 33.2861H10.6916V34.6174H9.36035V33.2861Z" fill="#23346B"/>
<path d="M43.3086 9.32283H41.2744C41.2205 9.78478 41.0993 10.2334 40.903 10.6541H43.3086C44.4095 10.6541 45.3055 11.5501 45.3055 12.651V30.6233H43.9742V22.3673C43.9742 20.6367 43.0124 19.0804 41.4647 18.3069C41.06 18.1046 40.628 17.9635 40.1807 17.8889L37.3178 17.4123V16.2801C37.9748 15.6903 38.4341 14.8889 38.5885 13.9823H39.3147C40.4157 13.9823 41.3116 13.0863 41.3116 11.9854C41.3116 10.8844 40.4157 9.98846 39.3147 9.98846H38.6491V9.9838H37.8696C36.8332 9.9838 35.8587 9.58043 35.1259 8.84756L34.6553 8.37695L34.1847 8.84756C33.4518 9.58043 32.478 9.9838 31.4409 9.9838H30.6614V9.98846H29.9958C28.8948 9.98846 27.9989 10.8844 27.9989 11.9854C27.9989 13.0863 28.8948 13.9823 29.9958 13.9823H30.722C30.8764 14.8889 31.3357 15.6903 31.9927 16.2801V17.4123L29.1291 17.8896C28.6818 17.9641 28.2498 18.1053 27.8458 18.3069C26.2982 19.0811 25.3363 20.6367 25.3363 22.3673V30.6233H6.69846V12.651C6.69846 11.5501 7.59441 10.6541 8.69538 10.6541H28.4076C28.2119 10.2334 28.0907 9.78478 28.0362 9.32283H8.69538C6.86021 9.32283 5.36719 10.8159 5.36719 12.651V33.9514C5.36719 35.7866 6.86021 37.2796 8.69538 37.2796H20.6516C20.5397 38.3413 19.9879 39.3038 19.1233 39.9422H16.0174C14.9164 39.9422 14.0205 40.8381 14.0205 41.9391V43.2704C14.0205 44.3714 14.9164 45.2673 16.0174 45.2673H35.9865C37.0875 45.2673 37.9835 44.3714 37.9835 43.2704V41.9391C37.9835 40.8381 37.0875 39.9422 35.9865 39.9422H32.8807C32.016 39.3038 31.4642 38.3413 31.3524 37.2796H43.3086C45.1437 37.2796 46.6368 35.7866 46.6368 33.9514V12.651C46.6368 10.8159 45.1437 9.32283 43.3086 9.32283ZM39.3147 11.3197C39.6815 11.3197 39.9804 11.6186 39.9804 11.9854C39.9804 12.3521 39.6815 12.651 39.3147 12.651H38.6491V11.3197H39.3147ZM29.3302 11.9854C29.3302 11.6186 29.629 11.3197 29.9958 11.3197H30.6614V12.651H29.9958C29.629 12.651 29.3302 12.3521 29.3302 11.9854ZM36.9417 18.699L37.2166 18.7449L36.8266 21.8681L35.5346 20.5761L36.9417 18.699ZM31.9927 11.2865C32.9685 11.1846 33.8851 10.8125 34.6553 10.2068C35.4254 10.8125 36.342 11.1846 37.3178 11.2865V13.312C37.3178 14.7804 36.1237 15.9746 34.6553 15.9746C33.1869 15.9746 31.9927 14.7804 31.9927 13.312V11.2865ZM34.6553 17.3058C35.1225 17.3058 35.5692 17.2206 35.9865 17.0729V17.7545L34.6553 19.5297L33.324 17.7545V17.0729C33.7413 17.2206 34.188 17.3058 34.6553 17.3058ZM32.3688 18.699L33.7766 20.5761L32.4846 21.8681L32.0946 18.7449L32.3688 18.699ZM26.6676 22.3673C26.6676 21.1446 27.3472 20.0449 28.4415 19.4971C28.7271 19.354 29.0326 19.2548 29.3488 19.2022L30.7799 18.9639L31.5008 24.7344L34.6553 21.5799L37.8097 24.7344L38.5306 18.9639L39.9617 19.2022C40.2786 19.2555 40.5834 19.3547 40.8697 19.4978C41.9633 20.0449 42.6429 21.1446 42.6429 22.3673V30.6233H26.6676V22.3673ZM36.6522 41.9391V43.2704C36.6522 43.6372 36.3533 43.936 35.9865 43.936H16.0174C15.6506 43.936 15.3518 43.6372 15.3518 43.2704V41.9391C15.3518 41.5723 15.6506 41.2735 16.0174 41.2735H35.9865C36.3533 41.2735 36.6522 41.5723 36.6522 41.9391ZM31.0142 39.9422H20.9897C21.5608 39.1734 21.907 38.2541 21.9828 37.2796H30.0204C30.097 38.2541 30.4431 39.1734 31.0142 39.9422ZM43.3086 35.9484H8.69538C7.59441 35.9484 6.69846 35.0524 6.69846 33.9514V31.9545H45.3055V33.9514C45.3055 35.0524 44.4095 35.9484 43.3086 35.9484Z" fill="#23346B"/>
<path d="M22.6733 13.9823C22.6733 12.8813 21.7774 11.9854 20.6764 11.9854H10.0262C8.92525 11.9854 8.0293 12.8813 8.0293 13.9823V21.9699C8.0293 23.0709 8.92525 23.9668 10.0262 23.9668H20.6764C21.7774 23.9668 22.6733 23.0709 22.6733 21.9699V13.9823ZM21.3421 21.9699C21.3421 22.3367 21.0432 22.6356 20.6764 22.6356H10.0262C9.65944 22.6356 9.36057 22.3367 9.36057 21.9699V13.9823C9.36057 13.6155 9.65944 13.3166 10.0262 13.3166H20.6764C21.0432 13.3166 21.3421 13.6155 21.3421 13.9823V21.9699Z" fill="#23346B"/>
<path d="M8.0293 25.2979H9.36057V26.6291H8.0293V25.2979Z" fill="#23346B"/>
<path d="M10.6914 25.2979H22.6729V26.6291H10.6914V25.2979Z" fill="#23346B"/>
<path d="M8.0293 27.9609H22.6733V29.2922H8.0293V27.9609Z" fill="#23346B"/>
</g>
<defs>
<clipPath id="clip0">
<rect width="50" height="50" fill="white"/>
</clipPath>
</defs>
</svg>
