<svg width="61" height="55" viewBox="0 0 61 55" fill="none" xmlns="http://www.w3.org/2000/svg">
<path opacity="0.08" fill-rule="evenodd" clip-rule="evenodd" d="M36.5673 46.5627C31.2639 46.6394 28.0026 42.3396 23.0863 40.9984C18.023 39.6171 10.9512 42.0919 7.60823 38.6623C4.28575 35.2537 6.49192 29.7315 7.60084 25.1117C8.59686 20.9621 10.3737 16.9614 13.6238 13.6007C16.8631 10.2513 20.9757 7.36943 25.7821 6.31192C30.45 5.28489 34.8254 6.90815 39.2634 7.95945C43.9983 9.08109 50.0924 9.00485 52.4364 12.6259C54.7779 16.2433 50.2416 20.9506 50.4377 25.2225C50.685 30.6103 56.9198 35.6293 53.7181 40.5551C50.6213 45.3196 42.7034 46.4739 36.5673 46.5627Z" fill="#23346B"/>
<g clip-path="url(#clip0)">
<path d="M37.9403 17.6331H38.3033C38.566 17.1859 38.7548 16.9293 38.7548 16.9293H43.6321C44.4021 16.9293 45.0257 17.5586 45.0257 18.3355V19.7418C45.7956 19.7418 46.4192 20.3711 46.4192 21.148V21.2689C46.4192 21.6416 46.2722 21.9995 46.0109 22.2632L45.434 22.8454C45.1727 23.1097 45.0257 23.4669 45.0257 23.8403V26.9861L47.2623 25.1059C48.9401 23.694 49.903 21.6198 49.903 19.4148C49.903 15.3311 46.6101 12.0081 42.5633 12.0081H41.3753C40.5253 12.0081 39.7735 11.4611 39.5038 10.6468L39.1408 9.54785L36.2095 11.3232C35.2006 11.9336 34.5742 13.0494 34.5742 14.2363C34.5742 16.1094 36.0841 17.6331 37.9403 17.6331Z" fill="white"/>
<path d="M11.5811 7.08594H24.1228V12.7109H11.5811V7.08594Z" fill="white"/>
<path d="M17.6963 27.5L20.1963 26.5L22.6963 39.5H32.1963L34.1963 38L35.6963 39H37.1963V34L38.1963 30.5L40.6963 29L42.1963 30L45.1963 27.5L47.1963 28.5L48.6963 30.5V40L48.1963 41.5L46.6963 43.5H51.1963V46.5H9.69629V43.5H19.1963L18.6963 42.5V39L17.1963 29L17.6963 27.5Z" fill="white"/>
<path d="M33.4894 21.5254H24.1602L24.7089 27.0132H25.8065V29.2083L26.9041 29.7571L29.648 26.4644H33.4894V21.5254Z" fill="white"/>
<path d="M40.1479 21.1475C40.5327 21.1475 40.8447 20.8327 40.8447 20.4443C40.8447 20.056 40.5327 19.7412 40.1479 19.7412C39.7631 19.7412 39.4512 20.056 39.4512 20.4443C39.4512 20.8327 39.7631 21.1475 40.1479 21.1475Z" fill="#23346B"/>
<path d="M48.0907 42.9453C48.8091 42.1662 49.2069 41.1601 49.2069 40.0899L49.2062 31.7389C49.2062 29.7146 48.0022 27.9209 46.1404 27.1686L45.7224 26.9998V23.8393C45.7224 23.6544 45.7962 23.473 45.9265 23.3422L46.5035 22.7593C46.8985 22.362 47.1159 21.8319 47.1159 21.2687V21.1484C47.1159 20.2316 46.5334 19.4497 45.7224 19.1593V18.3359C45.7224 17.173 44.7845 16.2266 43.6321 16.2266H38.4064L38.1974 16.5078C38.1061 16.6302 35.9677 19.5502 35.9677 23.2578V23.7648L38.0594 24.4686C38.0831 25.2617 38.4001 26.0042 38.9589 26.5681C39.2982 26.9105 39.7072 27.1503 40.1483 27.3008V28.4265C38.0169 29.4812 36.6645 31.6489 36.6645 34.0761V38.7266H36.2562L35.4619 37.925C35.0814 37.5404 34.554 37.3203 34.0147 37.3203C33.235 37.3203 32.5334 37.7577 32.1843 38.4622L32.0533 38.7266H31.7871C31.7857 38.7266 31.785 38.7266 31.7836 38.7266H23.3194L21.2291 26.0703H19.1158C17.6505 26.0703 16.4583 27.2734 16.4583 28.7513C16.4583 28.8695 16.466 28.989 16.4813 29.1057L17.8519 39.4761V41.6698C17.8519 42.1339 17.9801 42.5642 18.1863 42.9446H8.79395V47.1634H51.9933V42.9446H48.0907V42.9453ZM47.3981 30.069C47.6657 30.5696 47.8127 31.1398 47.8127 31.7389L47.8134 40.0899C47.8134 40.8359 47.5256 41.5377 46.9773 42.091C46.431 42.6416 45.7085 42.9453 44.9448 42.9453H36.6645V40.1328H45.0256V34.7891C45.0256 32.9166 45.921 31.1616 47.3981 30.069ZM39.4515 24.3723V23.454L37.3766 22.7558C37.5215 20.3567 38.6642 18.35 39.1227 17.6328H43.6321C44.0167 17.6328 44.3289 17.9485 44.3289 18.3359V20.4453H45.0256C45.4102 20.4453 45.7224 20.761 45.7224 21.1484V21.2687C45.7224 21.4564 45.6499 21.6329 45.5182 21.7658L44.9413 22.3487C44.547 22.7466 44.3289 23.2761 44.3289 23.84V27.1855L42.2386 29.2948L41.5418 28.5917V27.4766H42.9353V26.0703H41.1335C40.6841 26.0703 40.2619 25.8938 39.9441 25.5732C39.6264 25.2519 39.4515 24.8258 39.4515 24.3723ZM38.058 34.0754C38.058 32.217 39.0871 30.5647 40.7029 29.7336L42.2386 31.2833L45.1936 28.3013L45.6235 28.475C45.9461 28.6051 46.2415 28.7795 46.5035 28.989C44.7135 30.3474 43.6321 32.4976 43.6321 34.7891V38.7266H38.058V34.0754ZM32.9145 40.1328L33.4308 39.0908C33.6189 38.7111 34.1791 38.6204 34.4766 38.9192L35.2709 39.7208V42.9453H31.7836C31.4011 42.9453 31.0904 42.6296 31.0904 42.2422V40.8359C31.0904 40.4492 31.4018 40.1342 31.7857 40.1328H32.4839H32.9145ZM19.1151 27.4766H20.0488L21.9063 38.7266H19.1583L17.8623 28.9187C17.8554 28.8638 17.8519 28.8076 17.8519 28.7513C17.8519 28.0482 18.4183 27.4766 19.1151 27.4766ZM19.2454 41.6705V40.1328H29.825C29.747 40.3536 29.6968 40.5877 29.6968 40.8359V42.2422C29.6968 42.4904 29.747 42.7245 29.825 42.9453H20.5086C19.8119 42.9453 19.2454 42.3737 19.2454 41.6705ZM50.5997 45.7578H10.1875V44.3516H20.5086H32.4839H50.5997V45.7578Z" fill="#23346B"/>
<path d="M11.5811 6.38281H24.1228V7.78906H11.5811V6.38281Z" fill="#23346B"/>
<path d="M22.7295 9.19531H24.123V10.6016H22.7295V9.19531Z" fill="#23346B"/>
<path d="M11.5811 9.19531H21.3357V10.6016H11.5811V9.19531Z" fill="#23346B"/>
<path d="M11.5811 12.0078H24.1228V13.4141H11.5811V12.0078Z" fill="#23346B"/>
<path d="M10.8842 16.2266H17.6407L21.3761 18.7395C21.668 18.9357 22.0067 19.0391 22.3564 19.0391C23.3298 19.0391 24.1227 18.2396 24.1227 17.2566V16.2266H24.8195C25.9719 16.2266 26.9098 15.2802 26.9098 14.1172V5.67969C26.9098 4.51672 25.9719 3.57031 24.8195 3.57031H10.8842C9.73179 3.57031 8.79395 4.51672 8.79395 5.67969V14.1172C8.79395 15.2802 9.73179 16.2266 10.8842 16.2266ZM10.1875 5.67969C10.1875 5.29227 10.4996 4.97656 10.8842 4.97656H24.8195C25.2041 4.97656 25.5163 5.29227 25.5163 5.67969V14.1172C25.5163 14.5046 25.2041 14.8203 24.8195 14.8203H22.7292V17.2566C22.7292 17.5386 22.3801 17.7256 22.1495 17.5695L18.063 14.8203H10.8842C10.4996 14.8203 10.1875 14.5046 10.1875 14.1172V5.67969Z" fill="#23346B"/>
<path d="M26.2129 23.2578H31.787V24.6641H26.2129V23.2578Z" fill="#23346B"/>
<path d="M23.4258 22.5547V25.3672C23.4258 26.2841 24.0083 27.0659 24.8193 27.3563V28.5917C24.8193 29.5276 25.5739 30.2891 26.5013 30.2891C26.9451 30.2891 27.3785 30.1077 27.6907 29.792L29.9851 27.4766H32.4837C33.6361 27.4766 34.574 26.5302 34.574 25.3672V22.5547C34.574 21.3917 33.6361 20.4453 32.4837 20.4453H25.5161C24.3636 20.4453 23.4258 21.3917 23.4258 22.5547ZM33.1805 22.5547V25.3672C33.1805 25.7546 32.8683 26.0703 32.4837 26.0703H29.4082L26.7047 28.7977C26.5403 28.9644 26.2121 28.8294 26.2128 28.5917V26.0703H25.5161C25.1315 26.0703 24.8193 25.7546 24.8193 25.3672V22.5547C24.8193 22.1673 25.1315 21.8516 25.5161 21.8516H32.4837C32.8683 21.8516 33.1805 22.1673 33.1805 22.5547Z" fill="#23346B"/>
</g>
<defs>
<clipPath id="clip0">
<rect width="45" height="45" fill="white" transform="translate(7.69629 2.86719)"/>
</clipPath>
</defs>
</svg>
