<svg width="20" height="20" viewBox="0 0 20 20" fill="none" xmlns="http://www.w3.org/2000/svg"><path fill-rule="evenodd" clip-rule="evenodd" d="M9.8945 0.529907C5.99078 0.530278 3.28583 0.543266 1.89736 1.89915C0.541553 3.2873 0.528562 6.11928 0.528562 9.89602C4.72219 9.76947 6.63991 9.66446 8.16942 8.1709C9.6629 6.64139 9.76795 4.7237 9.8945 0.529907ZM1.89712 18.1021C0.54131 16.7139 0.52832 13.882 0.52832 10.1052C4.72195 10.2318 6.63967 10.3368 8.16918 11.8304C9.66266 13.3599 9.76771 15.2776 9.89426 19.471C5.99054 19.471 3.28559 19.4584 1.89712 18.1021ZM10.1036 19.471C10.2302 15.2776 10.3352 13.3599 11.8287 11.8304C13.3582 10.3368 15.2759 10.2318 19.4695 10.1052C19.4692 13.882 19.4562 16.7139 18.1004 18.1021C16.7119 19.4584 14.0074 19.471 10.1036 19.471ZM10.1036 0.529907C10.2302 4.7237 10.3352 6.64139 11.8287 8.1709C13.3582 9.66446 15.2759 9.76947 19.4695 9.89602C19.4692 6.11928 19.4562 3.2873 18.1004 1.89915C16.7119 0.543266 14.0074 0.530278 10.1036 0.529907Z" fill="#2C3036"/><path fill-rule="evenodd" clip-rule="evenodd" d="M11.8287 11.8304C10.3352 13.3599 10.2302 15.2776 10.1036 19.471C14.0074 19.471 16.7119 19.4584 18.1004 18.1021C19.4562 16.7139 19.4692 13.882 19.4695 10.1052C15.276 10.2318 13.3582 10.3368 11.8287 11.8304ZM0.52832 10.1052C0.52832 13.882 0.54131 16.7139 1.89712 18.1021C3.28559 19.4584 5.99054 19.471 9.89426 19.471C9.76771 15.2776 9.66266 13.3599 8.16918 11.8304C6.63967 10.3368 4.72195 10.2318 0.52832 10.1052ZM9.8945 0.529907C5.99078 0.530278 3.28583 0.543266 1.89736 1.89915C0.541553 3.2873 0.528562 6.11928 0.528562 9.89602C4.72219 9.76947 6.63991 9.66446 8.16942 8.1709C9.6629 6.64139 9.76795 4.7237 9.8945 0.529907ZM11.8287 8.1709C10.3352 6.64139 10.2302 4.7237 10.1036 0.529907C14.0074 0.530278 16.7119 0.543266 18.1004 1.89915C19.4562 3.2873 19.4692 6.11928 19.4695 9.89602C15.276 9.76947 13.3582 9.66446 11.8287 8.1709Z" fill="url(#paint0_linear)"/><path fill-rule="evenodd" clip-rule="evenodd" d="M19.4696 10.1059V10.0013V9.89697C15.2759 9.77006 13.3582 9.66545 11.8287 8.17153C10.3352 6.64234 10.2302 4.72469 10.1036 0.530884H9.99892H9.89427C9.76772 4.72469 9.66267 6.64234 8.16915 8.17153C6.63965 9.66545 4.72192 9.77006 0.52832 9.89697V10.0013V10.1059C4.72192 10.2328 6.63965 10.3374 8.16915 11.831C9.66267 13.3605 9.76772 15.2782 9.89427 19.472H9.99892H10.1036C10.2302 15.2782 10.3352 13.3605 11.8287 11.831C13.3582 10.3374 15.2759 10.2328 19.4696 10.1059Z" fill="#fff"/><defs><linearGradient id="paint0_linear" x1="19.47" y1="19.471" x2="19.47" y2=".53" gradientUnits="userSpaceOnUse"><stop stop-color="#fff" stop-opacity=".01"/><stop offset=".475" stop-color="#fff" stop-opacity=".01"/><stop offset=".76" stop-color="#fff" stop-opacity=".043"/><stop offset=".995" stop-color="#fff" stop-opacity=".099"/><stop offset="1" stop-color="#fff" stop-opacity=".1"/></linearGradient></defs></svg>