<svg width="47" height="48" viewBox="0 0 47 48" fill="none" xmlns="http://www.w3.org/2000/svg">
<path opacity="0.08" fill-rule="evenodd" clip-rule="evenodd" d="M43.3562 25.9255C42.4538 30.4984 42.6329 35.5269 39.9788 39.0943C37.3736 42.5958 33.2102 43.5138 29.3665 44.7291C25.5763 45.9275 21.7829 46.9229 17.9445 46.061C13.5702 45.0788 9.20735 43.3329 6.22269 39.5323C2.95487 35.371 0.355107 29.9084 0.839217 24.2793C1.31539 18.7426 5.01998 14.3095 8.7033 10.6888C11.8628 7.58306 16.2282 7.5792 19.9554 5.48827C24.8712 2.7305 26.9024 0.581002 32.3064 1.24143C37.7583 1.9077 44.086 2.74068 45.9832 8.6691C47.7703 14.2536 44.5088 20.0854 43.3562 25.9255Z" fill="#23346B"/>
<path d="M24.6764 32.261C30.0318 32.261 34.3733 27.9414 34.3733 22.6129C34.3733 17.2844 30.0318 12.9648 24.6764 12.9648C19.3209 12.9648 14.9795 17.2844 14.9795 22.6129C14.9795 27.9414 19.3209 32.261 24.6764 32.261Z" fill="white"/>
<path d="M4.97524 21.8186H11.6444L12.6704 22.8395V29.475V35.6001L13.1834 34.5792L14.2094 35.0897L16.2615 37.6418L18.8265 39.6835L20.8786 40.7043L24.4697 42.746L29.0868 40.7043L32.1648 38.1522L35.2429 34.0688L36.7819 31.5167L37.2949 27.4333V19.7769V10.3979L30.6258 9.56843L24.4697 7.52673L20.8786 9.05801L14.7224 10.0789H12.1574V12.1206V21.4039H9.3679L9.07933 7.52673H11.1314L15.2355 7.01631L20.3656 5.99546L24.4697 4.97461L28.0607 5.99546L30.6258 6.50588L34.2169 7.01631L37.8079 7.52673H39.347H39.86V17.7352V27.9437V29.475L39.347 32.0271L37.8079 36.1105L35.2429 39.6835L27.5477 44.2773L24.4697 45.8086L20.8786 44.2773L15.2355 40.7043L12.1574 36.6209L12.6704 35.6001L11.1314 36.6209H4.97524L3.94922 35.0897V22.8395L4.97524 21.8186Z" fill="#FFFDFD"/>
<path d="M39.0624 6.76277C34.2001 6.76277 29.4466 5.85171 24.9334 4.05589L24.6757 3.95312L24.4187 4.05574C19.9049 5.85171 15.1513 6.76263 10.289 6.76263H8.74503V21.2347H5.28193C4.13633 21.2347 3.2041 22.1623 3.2041 23.3021V35.0176C3.2041 36.1574 4.13633 37.0851 5.28193 37.0851H11.5156C11.5169 37.0851 11.5176 37.0851 11.519 37.0851C13.155 39.6714 15.422 41.8077 18.1247 43.2737L24.6756 46.829L31.2264 43.2737C37.0127 40.134 40.6061 34.1101 40.6061 27.5529V6.76277H39.0624ZM4.58922 35.0176V23.3021C4.58922 22.9223 4.89952 22.613 5.28178 22.613H11.5154C11.8977 22.613 12.208 22.9225 12.208 23.3021V35.0176C12.208 35.3973 11.8977 35.7068 11.5154 35.7068H5.28193C4.89952 35.7068 4.58922 35.3973 4.58922 35.0176ZM13.5935 24.6743C15.9063 24.5497 17.7494 22.6379 17.7494 20.3066V16.7554C17.7494 15.8058 18.5258 15.0325 19.481 15.0325C20.4361 15.0325 21.2126 15.8057 21.2126 16.7554V21.0929C21.2126 22.3112 22.2087 23.3022 23.4332 23.3022H28.5109C29.833 23.3022 30.9095 24.3725 30.9095 25.6888V33.3203C30.9095 34.6365 29.8332 35.7068 28.5109 35.7068H18.3055C17.7556 35.7068 17.2458 35.4345 16.9404 34.9798C16.378 34.1405 15.4366 33.6395 14.4226 33.6395H13.5935V24.6743ZM39.221 27.5528C39.221 33.6049 35.904 39.1656 30.5637 42.0634L24.6757 45.259L18.7877 42.0634C16.378 40.7554 14.3417 38.872 12.8442 36.5936C13.2646 36.2421 13.5411 35.7323 13.5798 35.1533C14.9775 37.5522 16.9903 39.5177 19.4513 40.8532L24.6758 43.689L29.9004 40.8532C34.7953 38.1971 37.836 33.1009 37.836 27.5534V17.0999H36.4507V27.5535C36.4507 32.5959 33.6871 37.2292 29.2376 39.6432L24.6758 42.1187L20.1141 39.6432C18.1624 38.584 16.5228 37.0872 15.2906 35.2761C15.4839 35.3966 15.657 35.5497 15.788 35.7448C16.3503 36.5841 17.2917 37.0851 18.3057 37.0851H28.511C30.5979 37.0851 32.2949 35.396 32.2949 33.3203V25.6888C32.2949 23.613 30.598 21.9239 28.511 21.9239H23.4333C22.9727 21.9239 22.598 21.5511 22.598 21.0929V16.7554C22.598 15.0456 21.1996 13.6542 19.4811 13.6542C17.7627 13.6542 16.3642 15.0456 16.3642 16.7554V20.3059C16.3642 21.8772 15.139 23.1548 13.5909 23.2781C13.5839 22.6793 13.3172 22.1458 12.901 21.7724V10.8184C16.9238 10.5724 20.8809 9.75443 24.6757 8.38291C28.4707 9.75428 32.427 10.5723 36.4504 10.8184V11.5869H37.8357V9.507L37.1749 9.47671C32.9817 9.28589 28.8571 8.45333 24.916 7.00271L24.6756 6.91376L24.4351 7.00197C20.4933 8.45259 16.3687 9.28515 12.1762 9.47598L11.5154 9.507V21.2349H10.1302V8.14106H10.2887C15.2362 8.14106 20.0742 7.23132 24.6754 5.43682C29.2766 7.23132 34.1146 8.14106 39.0621 8.14106H39.2207V27.5528H39.221Z" fill="#23346B"/>
<path d="M37.8374 14.3428H36.4521V15.7212H37.8374V14.3428Z" fill="#23346B"/>
<path d="M10.824 32.9502H5.97559V34.3284H10.824V32.9502Z" fill="#23346B"/>
</svg>
