<svg xmlns="http://www.w3.org/2000/svg" width="210" height="47" viewBox="0 0 210 47" fill="none">
  <path d="M23.0973 31.9482C18.6301 31.9482 15.0259 28.344 15.0259 23.8768C15.0259 19.4096 18.6301 15.8054 23.0973 15.8054C27.5645 15.8054 31.1687 19.4096 31.1687 23.8768H27.0568C27.0568 21.694 25.2801 19.9173 23.0973 19.9173C20.9145 19.9173 19.1377 21.694 19.1377 23.8768C19.1377 26.0597 20.9145 27.8364 23.0973 27.8364V31.9482Z" fill="#D01417"/>
  <path d="M13.4015 23.8773H9.44189C9.44189 16.3136 15.5843 10.2219 23.0973 10.2219V14.1815C17.7671 14.1815 13.4015 18.4964 13.4015 23.8773Z" fill="#23346B"/>
  <path d="M23.0977 43.2179V37.5324C30.6614 37.5324 36.7531 31.39 36.7531 23.877H42.4386C42.4386 34.5373 33.758 43.2179 23.0977 43.2179Z" fill="#D01417"/>
  <path d="M16.752 38.6997C13.1478 37.126 10.2035 34.334 8.52832 30.7805L14.3154 28.0393C15.3306 30.1714 17.1074 31.8466 19.2902 32.8111L16.752 38.6997Z" fill="#23346B"/>
  <path d="M16.752 38.6997C13.1478 37.126 10.2035 34.334 8.52832 30.7805L14.3154 28.0393C15.3306 30.1714 17.1074 31.8466 19.2902 32.8111L16.752 38.6997Z" fill="#23346B"/>
  <path d="M43.9615 23.8763H36.7531C36.7531 16.3125 30.6107 10.2209 23.0977 10.2209V3.01245C34.5702 3.01245 43.9615 12.353 43.9615 23.8763Z" fill="#23346B"/>
  <path d="M23.0968 43.2686C12.3856 43.2686 3.70508 34.5373 3.70508 23.877H5.68486C5.68486 33.4713 13.5024 41.2889 23.0968 41.2889V43.2686Z" fill="#D01417"/>
  <path d="M3.80666 23.8771H1.06543C1.06543 11.7446 10.9643 1.8457 23.0968 1.8457V4.58694C12.4365 4.58694 3.80666 13.2167 3.80666 23.8771Z" fill="#D01417"/>
  <path d="M31.8801 19.7138C30.8648 17.5817 29.0881 15.9066 26.9053 14.942L29.4435 9.05347C33.0477 10.6271 35.992 13.4191 37.6672 16.9726L31.8801 19.7138Z" fill="#D01417"/>
  <path d="M27.565 33.8272L24.9253 27.9387C25.9406 27.4818 26.7528 26.6696 27.2097 25.7051L33.0475 28.3448C31.9307 30.8322 30.0017 32.7612 27.565 33.8272Z" fill="#23346B"/>
  <path d="M54.8571 31.0994H51.2759V16.2197H61.4142C65.1467 16.2197 66.6599 17.6825 66.6599 21.415C66.6599 25.198 65.1467 26.7111 61.4647 26.7111H54.8571V31.0994ZM54.8571 23.7352H60.8089C62.6248 23.7352 63.1292 23.0291 63.1292 21.415C63.1292 19.9523 62.6752 19.1452 60.8089 19.1452H54.8571V23.7352Z" fill="#23346B"/>
  <path d="M80.4803 31.0983H73.9232C69.9385 31.0983 68.4253 29.6355 68.4253 26.0039V21.313C68.4253 17.2274 69.8376 16.0168 73.9232 16.0168H80.4803C84.1624 16.0168 85.8774 17.1265 85.8774 21.313V26.0039C85.8774 29.7364 84.6164 31.0983 80.4803 31.0983ZM74.7807 28.1728H79.522C81.7918 28.1728 82.2962 27.6684 82.2962 25.6508V21.6661C82.2962 19.4972 81.59 18.9928 79.4211 18.9928H74.8311C72.6118 18.9928 71.9561 19.5476 71.9561 21.6661V25.6508C72.0065 27.6179 72.6118 28.1728 74.7807 28.1728Z" fill="#23346B"/>
  <path d="M105.398 25.9534C105.398 29.9382 104.389 31.0983 100.001 31.0983H93.3933C89.2572 31.0983 87.9458 29.8373 87.9458 25.8526V21.6156C87.9458 17.2778 89.3581 16.0168 93.6959 16.0168H99.5973C103.128 16.0168 105.297 17.0256 105.297 21.2121H101.716C101.716 19.6485 100.909 18.9928 98.8407 18.9928H94.2507C91.8801 18.9928 91.3757 19.3963 91.3757 21.7165V25.3986C91.3757 27.6684 92.2332 28.1223 94.2507 28.1223H98.8407C100.959 28.1223 101.716 27.7188 101.716 25.9534H105.398Z" fill="#23346B"/>
  <path d="M111.35 28.1727H111.854L120.933 16.2689H126.935V31.1486H123.354V19.1944H122.85L113.922 31.0982H107.819V16.2185H111.4V28.1727H111.35Z" fill="#D01417"/>
  <path d="M132.937 21.9182H142.117V16.2185H145.698V31.0982H142.117V24.8941H132.937V31.0982H129.355V16.2185H132.937V21.9182Z" fill="#D01417"/>
  <path d="M161.588 16.2185V17.3786H166.178C169.86 17.3786 171.625 18.4378 171.625 22.6243V24.6419C171.625 28.3744 170.364 29.7867 166.178 29.7867H161.588V31.0982H158.007V29.7867H153.417C149.281 29.7867 148.02 28.4249 148.02 24.6923V22.6748C148.02 18.4883 149.734 17.3786 153.417 17.3786H158.007V16.2185H161.588ZM154.425 20.3545C152.307 20.3545 151.55 20.8589 151.55 23.0278V24.3393C151.55 26.3569 152.055 26.8612 154.324 26.8612H157.956V20.3545H154.425ZM161.588 26.8108H165.27C167.54 26.8108 168.044 26.3064 168.044 24.2888V22.9774C168.044 20.8085 167.338 20.3041 165.219 20.3041H161.638V26.8108H161.588Z" fill="#D01417"/>
  <path d="M177.476 31.0982H173.895V16.2185H184.033C187.765 16.2185 189.279 17.6813 189.279 21.4138C189.279 25.1967 187.765 26.7099 184.083 26.7099H177.476V31.0982ZM177.476 23.734H183.428C185.243 23.734 185.748 23.0278 185.748 21.4138C185.748 19.951 185.294 19.144 183.428 19.144H177.476V23.734Z" fill="#D01417"/>
  <path d="M188.926 31.0982L196.794 16.2185H202.091L209.909 31.0982H205.722L203.805 27.3656H195.029L193.112 31.0982H188.926ZM202.393 24.541L199.569 18.9927H199.417L196.492 24.541H202.393Z" fill="#D01417"/>
</svg>
