<svg width="344" height="47" viewBox="0 0 344 47" fill="none" xmlns="http://www.w3.org/2000/svg"><path d="M17.5851 41.5657C13.29 39.7249 9.78369 36.3939 7.85522 32.1864L14.6924 28.9431C15.9197 31.4851 18.0234 33.5013 20.5655 34.5532L17.5851 41.5657Z" fill="#455278"/><path d="M25.0428 34.1367C19.998 34.1367 15.8782 30.0169 15.8782 24.9721C15.8782 19.9274 19.998 15.8075 25.0428 15.8075C30.0875 15.8075 34.2074 19.9274 34.2074 24.9721H29.5831C29.5831 22.4497 27.5652 20.4319 25.0428 20.4319C22.5204 20.4319 20.5026 22.4497 20.5026 24.9721C20.5026 27.4945 22.5204 29.5124 25.0428 29.5124V34.1367Z" fill="#C1C7CA"/><path d="M14.1137 24.9717H9.65747C9.65747 16.3956 16.636 9.5011 25.128 9.5011V13.9573C18.9902 13.9573 14.1137 18.8339 14.1137 24.9717Z" fill="#30464F"/><path d="M25.043 46.916V40.4419C33.6191 40.4419 40.5976 33.4634 40.5976 24.8873H47.0717C47.0717 37.0788 37.2344 46.916 25.043 46.916Z" fill="#C1C7CA"/><path d="M17.8982 41.7875C13.7783 40.0218 10.4152 36.8268 8.56543 32.791L15.1236 29.6801C16.3007 32.1183 18.3186 34.0522 20.7569 35.0611L17.8982 41.7875Z" fill="#30464F"/><path d="M48.7533 24.9716H40.5976C40.5976 16.3956 33.6191 9.41702 25.043 9.41702V1.26135C38.1593 1.26135 48.7533 11.8553 48.7533 24.9716Z" fill="#30464F"/><path d="M25.0441 46.9999C12.9367 46.9999 3.01538 37.0786 3.01538 24.9712H5.28552C5.28552 35.9015 14.1979 44.7298 25.0441 44.7298V46.9999Z" fill="#C1C7CA"/><path d="M3.18221 24.9716H0.0712891C0.0712891 11.1826 11.2538 0.00012207 25.0428 0.00012207V3.11104C13.0195 3.02697 3.18221 12.8642 3.18221 24.9716Z" fill="#C1C7CA"/><path d="M35.0459 20.1795C33.8688 17.7412 31.8509 15.8074 29.4126 14.7984L32.2713 8.07214C36.3912 9.8378 39.7543 13.0328 41.6041 17.0686L35.0459 20.1795Z" fill="#AFB5B8"/><path d="M30.171 36.2377L27.2283 29.5955C28.4054 29.091 29.2461 28.1662 29.8347 27.0731L36.4769 30.1C35.1317 32.7905 32.8615 35.0606 30.171 36.2377Z" fill="#30464F"/><path d="M342.991 23.4283H293.002V26.3938H342.991V23.4283Z" fill="#2F3B43"/><path d="M293.002 44.0463H296.038V40.7277H313.549V29.2894H293.002V44.0463ZM296.108 32.1843H310.583V37.7622H296.108V32.1843Z" fill="#2F3B43"/><path d="M316.584 40.7277H328.164V44.0463H331.34V40.7277H342.991V29.2894H316.584V40.7277ZM331.34 32.1843H339.955V37.7622H331.34V32.1843ZM319.62 32.1843H328.164V37.7622H319.62V32.1843Z" fill="#2F3B43"/><path d="M338.825 7.89474H342.214V4.99988H327.881V7.89474V17.5679V20.3922H337.413C341.509 20.3922 343.132 18.3446 343.132 15.5909C343.132 12.8373 341.579 10.8602 337.484 10.8602H331.27V7.82416H338.825V7.89474ZM337.484 13.7552C339.037 13.7552 339.673 14.673 339.673 15.6616C339.673 16.65 339.108 17.5679 337.484 17.5679H331.27V13.7552H337.484Z" fill="#2F3B43"/><path d="M318.136 17.5682H310.793V20.4631H318.418C322.937 20.4631 326.044 17.3564 326.044 12.767C326.044 8.17752 322.937 5.0708 318.418 5.0708H310.793V7.96567H318.136C320.325 7.96567 321.878 9.3072 322.372 11.4255H312.488V14.2497H322.372C321.878 16.2267 320.325 17.5682 318.136 17.5682Z" fill="#2F3B43"/><path d="M308.463 9.23632C308.463 6.69445 306.768 4.99988 302.673 4.99988H293V20.4628H303.238C307.333 20.4628 308.957 18.6271 308.957 16.0146C308.957 14.32 308.251 13.0491 306.486 12.4136C307.898 11.7782 308.463 10.7191 308.463 9.23632ZM296.389 7.89479H302.814C304.367 7.89479 305.003 8.81267 305.003 9.80114C305.003 10.7897 304.438 11.5663 302.814 11.5663H296.389V7.89479ZM303.379 17.5679H296.389V13.8257H303.379C304.932 13.8257 305.568 14.673 305.568 15.6616C305.568 16.7207 305.003 17.5679 303.379 17.5679Z" fill="#2F3B43"/><path d="M277 5.00024H276V44.0002H277V5.00024Z" fill="#2F3B43"/><path d="M69.4162 4.90015V13.8788H67.6919V9.89489H63.4107V13.8788H61.6863V4.90015H63.4107V8.49755H67.6919V4.90015H69.4162Z" fill="#2F3B43"/><path d="M77.0535 11.649H73.2182L72.4452 13.8788H70.6614L74.1101 4.90015H76.1913L79.64 13.8788H77.8562L77.0535 11.649ZM76.5778 10.3408L75.3291 6.74344L75.1507 6.14883L74.9723 6.71371L73.6939 10.3408H76.5778Z" fill="#2F3B43"/><path d="M89.6004 12.4815V16.3167H88.0544V13.8788H80.8596V4.90015H82.584V12.4815H86.6571V4.90015H88.3815V12.4815H89.6004Z" fill="#2F3B43"/><path d="M91.0339 4.90107H92.6691V11.6797L93.0853 11.0256L97.3963 4.87134H99.0315V13.85H97.3963V7.04167L97.0098 7.63628L92.6691 13.85H91.0339V4.90107Z" fill="#2F3B43"/><path d="M100.694 9.39031C100.694 6.53617 102.359 4.69287 105.094 4.69287C107.829 4.69287 109.494 6.50644 109.494 9.39031C109.494 12.2147 107.829 14.058 105.094 14.058C102.359 14.058 100.694 12.2444 100.694 9.39031ZM107.681 9.39031C107.681 7.30916 106.67 6.11994 105.124 6.11994C103.548 6.11994 102.537 7.33889 102.537 9.39031C102.537 11.4417 103.518 12.631 105.124 12.631C106.67 12.631 107.681 11.4715 107.681 9.39031Z" fill="#2F3B43"/><path d="M118.945 4.90015V13.8788H117.221V9.89489H112.94V13.8788H111.215V4.90015H112.94V8.49755H117.221V4.90015H118.945Z" fill="#2F3B43"/><path d="M126.557 11.649H122.751L121.978 13.8788H120.194L123.643 4.90015H125.724L129.173 13.8788H127.389L126.557 11.649ZM126.111 10.3408L124.862 6.74344L124.684 6.14883L124.505 6.71371L123.227 10.3408H126.111Z" fill="#2F3B43"/><path d="M129.563 12.4517C130.276 12.4517 130.603 11.9166 130.871 11.322C131.287 10.3111 131.376 9.18135 131.495 7.9624L131.733 4.90015H137.53V13.8788H135.806V6.26775H133.279L133.13 7.99213C132.982 9.95435 132.744 10.9057 132.476 11.6787C131.822 13.4923 130.841 13.9383 129.533 13.8788V12.4517H129.563Z" fill="#2F3B43"/><path d="M147.012 11.1436C147.012 13.0463 145.764 13.8788 143.147 13.8788H139.699V4.90015H141.423V8.40836H143.147C145.794 8.40836 147.012 9.44893 147.012 11.1436ZM145.288 11.1436C145.288 10.1922 144.664 9.7165 143.147 9.7165H141.423V12.5706H143.147C144.634 12.5706 145.288 12.095 145.288 11.1436Z" fill="#2F3B43"/><path d="M156.35 4.90015V13.8788H154.626V9.89489H150.345V13.8788H148.62V4.90015H150.345V8.49755H154.626V4.90015H156.35Z" fill="#2F3B43"/><path d="M165.86 11.1436C165.86 13.0463 164.611 13.8788 161.995 13.8788H158.546V4.90015H160.27V8.40836H161.995C164.611 8.40836 165.86 9.44893 165.86 11.1436ZM164.106 11.1436C164.106 10.1922 163.481 9.7165 161.965 9.7165H160.241V12.5706H161.965C163.481 12.5706 164.106 12.095 164.106 11.1436ZM168.922 4.90015V13.8788H167.227V4.90015H168.922Z" fill="#2F3B43"/><path d="M171.161 4.9004H172.797V11.679L173.213 11.0249L177.524 4.87066H179.159V13.8493H177.524V7.041L177.137 7.63561L172.797 13.8493H171.161V4.9004ZM172.797 1.83813H174.045C174.105 2.67059 174.61 3.08683 175.145 3.08683C175.68 3.08683 176.186 2.64086 176.216 1.83813H177.494C177.435 3.17601 176.483 3.94901 175.145 3.94901C173.837 3.97874 172.826 3.17601 172.797 1.83813Z" fill="#2F3B43"/><path d="M192.795 12.4815V16.3167H191.249V13.8788H184.054V4.90015H185.779V12.4815H189.852V4.90015H191.576V12.4815H192.795Z" fill="#2F3B43"/><path d="M195.921 6.29748V8.58674H200.351V9.86516H195.921V12.4815H200.589V13.8788H194.226V4.90015H200.618V6.29748H195.921Z" fill="#2F3B43"/><path d="M210.218 4.90015V13.8788H208.494V9.89489H204.212V13.8788H202.488V4.90015H204.212V8.49755H208.494V4.90015H210.218Z" fill="#2F3B43"/><path d="M218.814 6.29748H216.079V13.8788H214.355V6.29748H211.619V4.90015H218.814V6.29748Z" fill="#2F3B43"/><path d="M227.532 7.75428C227.532 9.53812 226.402 10.6084 223.667 10.6084H221.943V13.8788H220.219V4.90015H223.667C226.373 4.90015 227.532 5.76233 227.532 7.75428ZM225.778 7.72456C225.778 6.71372 225.154 6.23803 223.638 6.23803H221.913V9.27054H223.638C225.154 9.27054 225.778 8.7354 225.778 7.72456Z" fill="#2F3B43"/><path d="M67.6621 21.2819H63.4107V28.8632H61.6863V19.8845H67.6324V21.2819H67.6621Z" fill="#2F3B43"/><path d="M68.4014 24.3744C68.4014 21.5203 70.0663 19.677 72.8015 19.677C75.5367 19.677 77.2016 21.4906 77.2016 24.3744C77.2016 27.1989 75.5367 29.0422 72.8015 29.0422C70.0663 29.0422 68.4014 27.2286 68.4014 24.3744ZM75.3583 24.3744C75.3583 22.2933 74.3475 21.1041 72.8015 21.1041C71.2258 21.1041 70.2149 22.323 70.2149 24.3744C70.2149 26.4259 71.1961 27.6151 72.8015 27.6151C74.3772 27.6151 75.3583 26.4556 75.3583 24.3744Z" fill="#2F3B43"/><path d="M78.4297 24.404C78.4297 21.5498 80.0649 19.7065 82.7704 19.7065C84.8515 19.7065 86.2191 20.8066 86.784 22.5904L85.0893 23.0661C84.7028 21.8174 83.9001 21.1336 82.7406 21.1336C81.1946 21.1336 80.2433 22.3526 80.2433 24.404C80.2433 26.4257 81.1946 27.6446 82.7406 27.6446C83.8704 27.6446 84.7028 26.9311 85.0893 25.7121L86.784 26.1878C86.1894 27.9717 84.8515 29.0717 82.7704 29.0717C80.0649 29.042 78.4297 27.2284 78.4297 24.404Z" fill="#2F3B43"/><path d="M88.382 28.8926V27.4953C88.8577 27.5845 89.2442 27.5845 89.3631 27.5845C90.0469 27.5845 90.6118 27.2574 90.6118 26.4547C90.6118 26.1574 90.4929 25.8006 90.2847 25.4141L87.4009 19.8545H89.2442L91.7415 25.0276L94.0605 19.8545H95.8741L92.7524 26.3358C91.8902 28.1196 91.1767 29.0115 89.4523 29.0115C89.155 29.0115 88.7388 29.0115 88.382 28.8926Z" fill="#2F3B43"/><path d="M104.861 27.4658V30.8551H103.374V28.8929H96.9819V30.8551H95.4954V27.4658H96.3873C97.2495 26.0388 97.4873 24.6414 97.636 22.9468L97.8441 19.8845H103.701V27.4658H104.861ZM99.3009 22.917C99.182 24.5522 98.9144 26.128 98.2603 27.4361H102.036V21.2521H99.3901L99.3009 22.917Z" fill="#2F3B43"/><path d="M111.76 26.6334H107.954L107.181 28.8632H105.397L108.846 19.8845H110.927L114.376 28.8632H112.592L111.76 26.6334ZM111.314 25.3252L110.065 21.7278L109.887 21.1332L109.708 21.6981L108.43 25.3252H111.314Z" fill="#2F3B43"/><path d="M122.901 22.7387C122.901 24.5225 121.771 25.5928 119.036 25.5928H117.311V28.8632H115.587V19.8845H119.036C121.771 19.8845 122.901 20.7467 122.901 22.7387ZM121.176 22.7089C121.176 21.6981 120.552 21.2224 119.036 21.2224H117.311V24.2549H119.036C120.522 24.2549 121.176 23.7198 121.176 22.7089Z" fill="#2F3B43"/><path d="M123.942 24.404C123.942 21.5498 125.578 19.7065 128.283 19.7065C130.364 19.7065 131.732 20.8066 132.297 22.5904L130.602 23.0661C130.216 21.8174 129.413 21.1336 128.253 21.1336C126.707 21.1336 125.756 22.3526 125.756 24.404C125.756 26.4257 126.707 27.6446 128.253 27.6446C129.383 27.6446 130.216 26.9311 130.602 25.7121L132.297 26.1878C131.702 27.9717 130.364 29.0717 128.283 29.0717C125.578 29.042 123.942 27.2284 123.942 24.404Z" fill="#2F3B43"/><path d="M140.15 21.2819H137.414V28.8632H135.69V21.2819H132.955V19.8845H140.15V21.2819Z" fill="#2F3B43"/><path d="M149.042 26.4253C149.042 28.0307 147.823 28.8632 145.177 28.8632H141.55V19.8845H145.058C147.615 19.8845 148.685 20.6575 148.685 22.2332C148.685 23.2738 148.121 23.9873 146.842 24.1955C148.15 24.3441 149.042 25.1468 149.042 26.4253ZM143.245 21.1332V23.6009H145.088C146.426 23.6009 147.08 23.1549 147.08 22.3819C147.08 21.5494 146.456 21.1332 145.029 21.1332H143.245ZM147.288 26.2171C147.288 25.2658 146.575 24.7901 145.058 24.7901H143.215V27.5848H145.118C146.664 27.5848 147.288 27.0793 147.288 26.2171Z" fill="#2F3B43"/><path d="M152.423 21.2819V23.5711H156.853V24.8495H152.423V27.4658H157.091V28.8632H150.699V19.8845H157.091V21.2819H152.423Z" fill="#2F3B43"/><path d="M166.722 19.8845V28.8632H164.998V24.8793H160.716V28.8632H158.992V19.8845H160.716V23.4819H164.998V19.8845H166.722Z" fill="#2F3B43"/><path d="M176.626 19.8845V28.8632H174.902V24.8793H170.621V28.8632H168.896V19.8845H170.621V23.4819H174.902V19.8845H176.626Z" fill="#2F3B43"/><path d="M178.351 24.3744C178.351 21.5203 180.016 19.677 182.751 19.677C185.487 19.677 187.152 21.4906 187.152 24.3744C187.152 27.1989 185.487 29.0422 182.751 29.0422C180.016 29.0422 178.351 27.2286 178.351 24.3744ZM185.308 24.3744C185.308 22.2933 184.297 21.1041 182.751 21.1041C181.176 21.1041 180.165 22.323 180.165 24.3744C180.165 26.4259 181.146 27.6151 182.751 27.6151C184.327 27.6151 185.308 26.4556 185.308 24.3744Z" fill="#2F3B43"/><path d="M188.219 23.6013H192.529V24.7608H188.219V23.6013Z" fill="#2F3B43"/><path d="M201.06 19.8845V28.8929H199.335V25.1171C198.8 25.4442 198.057 25.7117 197.076 25.7117C195.203 25.7117 193.657 24.8198 193.657 22.6792V19.9143H195.381V22.5008C195.381 23.809 196.065 24.2847 197.373 24.2847C198.354 24.2847 198.949 23.9873 199.335 23.6009V19.8845H201.06Z" fill="#2F3B43"/><path d="M208.702 26.6334H204.896L204.123 28.8632H202.339L205.788 19.8845H207.869L211.318 28.8632H209.534L208.702 26.6334ZM208.226 25.3252L206.977 21.7278L206.799 21.1332L206.621 21.6981L205.342 25.3252H208.226Z" fill="#2F3B43"/><path d="M211.669 24.404C211.669 21.5498 213.305 19.7065 216.01 19.7065C218.091 19.7065 219.459 20.8066 220.024 22.5904L218.329 23.0661C217.943 21.8174 217.14 21.1336 215.98 21.1336C214.434 21.1336 213.483 22.3526 213.483 24.404C213.483 26.4257 214.434 27.6446 215.98 27.6446C217.11 27.6446 217.943 26.9311 218.329 25.7121L220.024 26.1878C219.429 27.9717 218.091 29.0717 216.01 29.0717C213.305 29.042 211.669 27.2284 211.669 24.404Z" fill="#2F3B43"/><path d="M227.885 21.2819H225.15V28.8632H223.426V21.2819H220.691V19.8845H227.885V21.2819Z" fill="#2F3B43"/><path d="M236.982 19.8845V28.8632H235.258V24.8793H230.977V28.8632H229.252V19.8845H230.977V23.4819H235.258V19.8845H236.982Z" fill="#2F3B43"/><path d="M238.702 24.3744C238.702 21.5203 240.367 19.677 243.102 19.677C245.838 19.677 247.502 21.4906 247.502 24.3744C247.502 27.1989 245.838 29.0422 243.102 29.0422C240.367 29.0422 238.702 27.2286 238.702 24.3744ZM245.659 24.3744C245.659 22.2933 244.648 21.1041 243.102 21.1041C241.527 21.1041 240.516 22.323 240.516 24.3744C240.516 26.4259 241.497 27.6151 243.102 27.6151C244.678 27.6151 245.659 26.4556 245.659 24.3744Z" fill="#2F3B43"/><path d="M255.173 21.2819H250.922V28.8632H249.198V19.8845H255.144V21.2819H255.173Z" fill="#2F3B43"/><path d="M255.913 24.3744C255.913 21.5203 257.578 19.677 260.313 19.677C263.048 19.677 264.713 21.4906 264.713 24.3744C264.713 27.1989 263.048 29.0422 260.313 29.0422C257.578 29.0422 255.913 27.2286 255.913 24.3744ZM262.87 24.3744C262.87 22.2933 261.859 21.1041 260.313 21.1041C258.737 21.1041 257.726 22.323 257.726 24.3744C257.726 26.4259 258.707 27.6151 260.313 27.6151C261.888 27.6151 262.87 26.4556 262.87 24.3744Z" fill="#2F3B43"/><path d="M69.4162 43.8488H67.6919V36.2675H63.4107V43.8488H61.6863V34.8701H69.4162V43.8488Z" fill="#2F3B43"/><path d="M77.0535 41.619H73.2182L72.4452 43.8488H70.6614L74.1101 34.8701H76.1913L79.64 43.8488H77.8562L77.0535 41.619ZM76.5778 40.3108L75.3291 36.7134L75.1507 36.1188L74.9723 36.6837L73.6939 40.3108H76.5778Z" fill="#2F3B43"/><path d="M88.2019 37.7243C88.2019 39.5081 87.0722 40.5784 84.3369 40.5784H82.6126V43.8488H80.8882V34.8701H84.3369C87.0424 34.8701 88.2019 35.7323 88.2019 37.7243ZM86.4478 37.6945C86.4478 36.6837 85.8235 36.208 84.3072 36.208H82.5828V39.2405H84.3072C85.8235 39.2405 86.4478 38.7054 86.4478 37.6945Z" fill="#2F3B43"/><path d="M96.1699 36.2675H93.4347V43.8488H91.7103V36.2675H88.9751V34.8701H96.1699V36.2675Z" fill="#2F3B43"/><path d="M105.272 34.8701V43.8488H103.547V39.8649H99.2661V43.8488H97.5417V34.8701H99.2661V38.4675H103.547V34.8701H105.272Z" fill="#2F3B43"/><path d="M109.196 36.2675V38.5567H113.625V39.8351H109.196V42.4514H113.863V43.8488H107.471V34.8701H113.863V36.2675H109.196Z" fill="#2F3B43"/><path d="M123.083 37.7243C123.083 39.5081 121.953 40.5784 119.218 40.5784H117.494V43.8488H115.769V34.8701H119.218C121.924 34.8701 123.083 35.7323 123.083 37.7243ZM121.329 37.6945C121.329 36.6837 120.705 36.208 119.188 36.208H117.464V39.2405H119.188C120.705 39.2405 121.329 38.7054 121.329 37.6945Z" fill="#2F3B43"/><path d="M124.091 39.3876C124.091 36.5335 125.726 34.6902 128.432 34.6902C130.513 34.6902 131.88 35.7902 132.445 37.5741L130.75 38.0498C130.364 36.8011 129.561 36.1173 128.402 36.1173C126.856 36.1173 125.904 37.3362 125.904 39.3876C125.904 41.4093 126.856 42.6283 128.402 42.6283C129.532 42.6283 130.364 41.9147 130.75 40.6958L132.445 41.1715C131.851 42.9553 130.513 44.0553 128.432 44.0553C125.756 44.0256 124.091 42.212 124.091 39.3876Z" fill="#2F3B43"/><path d="M140.323 36.2675H137.588V43.8488H135.864V36.2675H133.128V34.8701H140.323V36.2675Z" fill="#2F3B43"/><path d="M149.216 41.4109C149.216 43.0163 147.997 43.8488 145.351 43.8488H141.724V34.8701H145.232C147.789 34.8701 148.859 35.6431 148.859 37.2188C148.859 38.2594 148.294 38.9729 147.016 39.1811C148.324 39.3297 149.216 40.1324 149.216 41.4109ZM143.389 36.1188V38.5864H145.232C146.57 38.5864 147.224 38.1405 147.224 37.3675C147.224 36.535 146.6 36.1188 145.173 36.1188H143.389ZM147.462 41.2027C147.462 40.2514 146.748 39.7757 145.232 39.7757H143.389V42.5703H145.292C146.808 42.5703 147.462 42.0649 147.462 41.2027Z" fill="#2F3B43"/><path d="M156.288 41.619H152.482L151.709 43.8488H149.926L153.374 34.8701H155.455L158.904 43.8488H157.12L156.288 41.619ZM155.812 40.3108L154.564 36.7134L154.385 36.1188L154.207 36.6837L152.928 40.3108H155.812Z" fill="#2F3B43"/></svg>