<svg width="23" height="19" viewBox="0 0 23 19" fill="none" xmlns="http://www.w3.org/2000/svg"><path d="M0.887131 8.96355L5.9374 10.7676L7.89216 16.7846C8.01724 17.1699 8.50959 17.3124 8.83638 17.0567L11.6515 14.8601C11.9466 14.63 12.3669 14.6185 12.6753 14.8328L17.7527 18.3611C18.1023 18.6043 18.5976 18.4209 18.6852 18.0166L22.4047 0.892326C22.5004 0.450672 22.047 0.0822313 21.6077 0.24488L0.881213 7.89767C0.369728 8.08647 0.374184 8.77958 0.887131 8.96355ZM7.57713 9.80728L17.4472 3.98893C17.6246 3.88468 17.8071 4.11424 17.6548 4.24948L9.5091 11.4966C9.22279 11.7517 9.03809 12.0931 8.98578 12.4636L8.70831 14.4318C8.67156 14.6946 8.28588 14.7206 8.21012 14.4663L7.14295 10.8774C7.02072 10.468 7.19884 10.0308 7.57713 9.80728Z" fill="#61A8DE"/></svg>